<svg width="41" height="40" viewBox="0 0 41 40" fill="none" id="backendSVG">
  <g clip-path="url(#backendSVG_clipPath)">
    <path d="M39.1616 1.00098L1.50537 1.01715C0.858184 1.01715 0.333496 1.54184 0.333496 2.18902V25.7817C0.333496 26.4289 0.858184 26.9536 1.50537 26.9536H8.05139L8.05115 30.4151C8.05115 30.6319 8.11131 30.8446 8.2249 31.0292L11.5289 36.3999C12.5156 38.0039 14.2984 39.0003 16.1816 39.0003H28.6864C31.8462 39.0003 34.417 36.4296 34.417 33.2696V26.9535H39.1616C39.8088 26.9535 40.3335 26.4288 40.3335 25.7816V2.18902V2.17285C40.3335 1.52566 39.8088 1.00098 39.1616 1.00098ZM25.3065 3.3609H37.9897V15.5593H25.3065V3.3609ZM2.67725 24.6098V3.3609H8.05115V24.6098H2.67725ZM32.0733 33.2697C32.0733 35.1372 30.554 36.6566 28.6864 36.6566H16.1816C15.1064 36.6566 14.0885 36.0877 13.5251 35.1719L10.3949 30.0836L10.3954 24.1092C10.3954 23.4502 10.9315 22.9142 11.5904 22.9142H13.134L13.1344 26.4825C13.1344 26.4923 13.1344 26.5021 13.1347 26.5118V26.5253C13.1574 27.2943 13.7496 27.7084 14.3065 27.7084C14.8665 27.7082 15.4626 27.2934 15.4783 26.5247L15.4783 26.5214C15.4785 26.5131 15.4786 26.5047 15.4786 26.4964L15.4784 14.6314C15.4784 13.9725 16.0145 13.4364 16.6745 13.4364C17.3329 13.4364 17.8687 13.9719 17.8687 14.63L17.869 23.9941C17.869 24.6413 18.3937 25.166 19.0408 25.166C19.688 25.166 20.2127 24.6413 20.2127 23.9941L20.2128 21.5173C20.2128 20.8582 20.7491 20.3219 21.4083 20.3219C22.0675 20.3219 22.6037 20.8582 22.6038 21.5174V25.4389C22.6038 26.0861 23.1285 26.6107 23.7757 26.6107C24.4229 26.6107 24.9476 26.0861 24.9476 25.4389V22.9622C24.9476 22.303 25.4839 21.7667 26.1431 21.7667C26.8023 21.7667 27.3387 22.303 27.3387 22.9622V27.6061C27.3387 28.2532 27.8633 28.7779 28.5105 28.7779C29.1577 28.7779 29.6824 28.2532 29.6824 27.6061V24.407C29.6824 23.7478 30.2187 23.2114 30.8779 23.2114C31.5372 23.2114 32.0735 23.7478 32.0735 24.407L32.0733 33.2697ZM34.417 24.6098V24.4069C34.417 22.4554 32.8293 20.8676 30.8777 20.8676C30.2906 20.8676 29.7363 21.0114 29.2484 21.2654C28.6465 20.1684 27.4801 19.4229 26.1429 19.4229C25.5558 19.4229 25.0015 19.5666 24.5137 19.8207C23.9118 18.7235 22.7454 17.9781 21.4082 17.9781C20.9888 17.9781 20.5862 18.0514 20.2126 18.1859L20.2125 14.6297C20.2123 12.6793 18.6252 11.0926 16.6734 11.0926C14.7222 11.0926 13.1347 12.68 13.1347 14.6312L13.1343 20.5704H11.5905C11.1711 20.5704 10.7687 20.6442 10.395 20.7787V3.3609H22.9629V16.7311C22.9629 17.3783 23.4876 17.903 24.1347 17.903H37.9897V24.6098H34.417Z" fill="#FFEE66"></path>
    <path d="M33.8578 6.82121L30.5414 10.1376L29.2821 8.87832C28.8245 8.42074 28.0825 8.42074 27.6249 8.87832C27.1672 9.3359 27.1672 10.0779 27.6249 10.5356L29.7128 12.6236C29.9417 12.8524 30.2416 12.9668 30.5414 12.9668C30.8413 12.9668 31.1413 12.8524 31.37 12.6236L35.5151 8.47848C35.9728 8.0209 35.9728 7.27887 35.5151 6.82121C35.0574 6.36363 34.3154 6.36363 33.8578 6.82121V6.82121Z" fill="#FFEE66"></path>
    <path d="M5.36421 12.6909C4.75124 12.6909 4.16397 13.2299 4.19233 13.8628C4.22077 14.4977 4.70725 15.0347 5.36421 15.0347C5.97718 15.0347 6.56444 14.4957 6.53608 13.8628C6.50764 13.2279 6.02116 12.6909 5.36421 12.6909Z" fill="#FFEE66"></path>
  </g>
  <defs>
    <clipPath id="backendSVG_clipPath">
      <rect width="40" height="40" fill="white" transform="translate(0.333496)"></rect>
    </clipPath>
  </defs>
</svg>