<svg width="40" height="40" viewBox="0 0 40 40" fill="none" id="frontendSVG">
  <path d="M38.8281 1.06787H1.17188C0.524687 1.06787 0 1.59256 0 2.23975V31.7551C0 32.4022 0.524687 32.9269 1.17188 32.9269H15.4383V36.5885H15.1007C14.4535 36.5885 13.9288 37.1132 13.9288 37.7604C13.9288 38.4076 14.4535 38.9322 15.1007 38.9322H24.8993C25.5465 38.9322 26.0712 38.4076 26.0712 37.7604C26.0712 37.1132 25.5465 36.5885 24.8993 36.5885H24.5617V32.9269H38.8281C39.4753 32.9269 40 32.4022 40 31.7551V2.23975C40 1.59256 39.4753 1.06787 38.8281 1.06787V1.06787ZM2.34375 3.41162H37.6562V24.4847H2.34375V3.41162ZM22.218 36.5885H17.782V32.9269H22.2179V36.5885H22.218ZM37.6562 30.5832H2.34375V26.8284H37.6562V30.5832Z" fill="#FFEE66"></path>
  <path d="M30.7508 6.7627H10.3912C9.74405 6.7627 9.21936 7.28738 9.21936 7.93457C9.21936 8.58176 9.74405 9.10645 10.3912 9.10645H30.7508C31.398 9.10645 31.9226 8.58176 31.9226 7.93457C31.9226 7.28738 31.398 6.7627 30.7508 6.7627Z" fill="#FFEE66"></path>
  <path d="M30.7508 18.7896H23.125C22.4778 18.7896 21.9531 19.3142 21.9531 19.9614C21.9531 20.6086 22.4778 21.1333 23.125 21.1333H30.7508C31.398 21.1333 31.9227 20.6086 31.9227 19.9614C31.9227 19.3142 31.398 18.7896 30.7508 18.7896Z" fill="#FFEE66"></path>
  <path d="M30.7508 13.1357H23.125C22.4778 13.1357 21.9531 13.6604 21.9531 14.3076C21.9531 14.9548 22.4778 15.4795 23.125 15.4795H30.7508C31.398 15.4795 31.9227 14.9548 31.9227 14.3076C31.9227 13.6604 31.398 13.1357 30.7508 13.1357Z" fill="#FFEE66"></path>
  <path d="M18.4375 13.1357H10.3912C9.74405 13.1357 9.21936 13.6604 9.21936 14.3076V19.9614C9.21936 20.6086 9.74405 21.1333 10.3912 21.1333H18.4375C19.0847 21.1333 19.6094 20.6086 19.6094 19.9614V14.3076C19.6094 13.6604 19.0847 13.1357 18.4375 13.1357ZM17.2656 18.7896H11.5631V15.4795H17.2656V18.7896Z" fill="#FFEE66"></path>
</svg>