<svg width="41" height="40" viewBox="0 0 41 40" fill="none" id="languagesSVG">
  <path d="M35.9013 0H5.43213C4.78494 0 4.26025 0.524687 4.26025 1.17188V38.8281C4.26025 39.4753 4.78494 40 5.43213 40H35.9013C36.5485 40 37.0732 39.4753 37.0732 38.8281V1.17188C37.0732 0.524687 36.5485 0 35.9013 0ZM34.7295 2.34375V4.68797H6.604V2.34375H34.7295ZM34.7295 37.6562H6.604V7.03172H34.7295V37.6562Z" fill="#FFEE66"></path>
  <path d="M29.4562 11.7192H30.042V12.8914C30.042 13.5386 30.5667 14.0633 31.2139 14.0633C31.8611 14.0633 32.3858 13.5386 32.3858 12.8914V10.5474C32.3858 9.90018 31.8611 9.37549 31.2139 9.37549H29.4562C28.809 9.37549 28.2843 9.90018 28.2843 10.5474C28.2843 11.1946 28.809 11.7192 29.4562 11.7192Z" fill="#FFEE66"></path>
  <path d="M29.4562 21.2484H31.2139C31.8611 21.2484 32.3858 20.7237 32.3858 20.0765V17.5791C32.3858 16.9319 31.8611 16.4072 31.2139 16.4072C30.5667 16.4072 30.042 16.9319 30.042 17.5791V18.9046H29.4562C28.809 18.9046 28.2843 19.4293 28.2843 20.0765C28.2843 20.7238 28.809 21.2484 29.4562 21.2484Z" fill="#FFEE66"></path>
  <path d="M23.0107 21.2484H24.7685C25.4157 21.2484 25.9404 20.7237 25.9404 20.0765C25.9404 19.4293 25.4157 18.9046 24.7685 18.9046H24.1826V17.5791C24.1826 16.9319 23.6579 16.4072 23.0107 16.4072C22.3636 16.4072 21.8389 16.9319 21.8389 17.5791V20.0765C21.8389 20.7238 22.3636 21.2484 23.0107 21.2484Z" fill="#FFEE66"></path>
  <path d="M23.0107 14.0633C23.6579 14.0633 24.1826 13.5386 24.1826 12.8914V11.7192H24.7685C25.4157 11.7192 25.9404 11.1946 25.9404 10.5474C25.9404 9.90018 25.4157 9.37549 24.7685 9.37549H23.0107C22.3636 9.37549 21.8389 9.90018 21.8389 10.5474V12.8914C21.8389 13.5386 22.3636 14.0633 23.0107 14.0633Z" fill="#FFEE66"></path>
  <path d="M23.0107 25.9365H31.2139C31.8611 25.9365 32.3857 25.4118 32.3857 24.7646C32.3857 24.1175 31.8611 23.5928 31.2139 23.5928H23.0107C22.3636 23.5928 21.8389 24.1175 21.8389 24.7646C21.8389 25.4118 22.3636 25.9365 23.0107 25.9365Z" fill="#FFEE66"></path>
  <path d="M23.0107 30.6245H31.2139C31.8611 30.6245 32.3857 30.0998 32.3857 29.4526C32.3857 28.8054 31.8611 28.2808 31.2139 28.2808H23.0107C22.3636 28.2808 21.8389 28.8054 21.8389 29.4526C21.8389 30.0998 22.3636 30.6245 23.0107 30.6245Z" fill="#FFEE66"></path>
  <path d="M23.0107 35.3125H31.2139C31.8611 35.3125 32.3857 34.7878 32.3857 34.1406C32.3857 33.4934 31.8611 32.9688 31.2139 32.9688H23.0107C22.3636 32.9688 21.8389 33.4934 21.8389 34.1406C21.8389 34.7878 22.3636 35.3125 23.0107 35.3125Z" fill="#FFEE66"></path>
  <path d="M10.1196 11.7192H18.3228C18.9699 11.7192 19.4946 11.1946 19.4946 10.5474C19.4946 9.90018 18.9699 9.37549 18.3228 9.37549H10.1196C9.47244 9.37549 8.94775 9.90018 8.94775 10.5474C8.94775 11.1946 9.47244 11.7192 10.1196 11.7192V11.7192Z" fill="#FFEE66"></path>
  <path d="M18.3228 14.0635H16.5651C15.9179 14.0635 15.3932 14.5882 15.3932 15.2354C15.3932 15.8825 15.9179 16.4072 16.5651 16.4072H17.1509V17.6564C17.1509 18.3036 17.6756 18.8283 18.3228 18.8283C18.97 18.8283 19.4947 18.3036 19.4947 17.6564V15.2354C19.4947 14.5881 18.97 14.0635 18.3228 14.0635Z" fill="#FFEE66"></path>
  <path d="M10.1196 18.8281C10.7668 18.8281 11.2915 18.3034 11.2915 17.6562V16.407H11.8774C12.5246 16.407 13.0492 15.8823 13.0492 15.2351C13.0492 14.5879 12.5246 14.0632 11.8774 14.0632H10.1196C9.47244 14.0632 8.94775 14.5879 8.94775 15.2351V17.6562C8.94775 18.3035 9.47244 18.8281 10.1196 18.8281V18.8281Z" fill="#FFEE66"></path>
  <path d="M10.1196 35.3125H11.8774C12.5246 35.3125 13.0492 34.7878 13.0492 34.1406C13.0492 33.4934 12.5246 32.9687 11.8774 32.9687H11.2915V31.7195C11.2915 31.0723 10.7668 30.5476 10.1196 30.5476C9.47244 30.5476 8.94775 31.0723 8.94775 31.7195V34.1406C8.94775 34.7878 9.47244 35.3125 10.1196 35.3125V35.3125Z" fill="#FFEE66"></path>
  <path d="M18.3228 30.5476C17.6756 30.5476 17.1509 31.0723 17.1509 31.7195V32.9687H16.5651C15.9179 32.9687 15.3932 33.4934 15.3932 34.1406C15.3932 34.7878 15.9179 35.3125 16.5651 35.3125H18.3228C18.97 35.3125 19.4947 34.7878 19.4947 34.1406V31.7195C19.4947 31.0723 18.97 30.5476 18.3228 30.5476Z" fill="#FFEE66"></path>
  <path d="M10.1196 28.2036C10.7668 28.2036 11.2915 27.6789 11.2915 27.0317V22.344C11.2915 21.6968 10.7668 21.1721 10.1196 21.1721C9.47244 21.1721 8.94775 21.6968 8.94775 22.344V27.0317C8.94775 27.679 9.47244 28.2036 10.1196 28.2036V28.2036Z" fill="#FFEE66"></path>
  <path d="M18.3228 21.1721C17.6756 21.1721 17.1509 21.6968 17.1509 22.344V27.0317C17.1509 27.6789 17.6756 28.2036 18.3228 28.2036C18.9699 28.2036 19.4946 27.6789 19.4946 27.0317V22.344C19.4946 21.6968 18.9699 21.1721 18.3228 21.1721Z" fill="#FFEE66"></path>
</svg>