<svg xmlns="http://www.w3.org/2000/svg" version="1.0" viewBox="0 0 576 717" fill="white">
  <path d="M121.8 3c-4.8 1.6-11.4 4.3-14.6 5.9-8.3 4.2-21.1 14-26.5 20.2C75.5 35.2 2 132.6 2 133.5c0 .3 98.1.5 218 .5 194.8 0 218.9-.2 225.7-1.6 10.9-2.2 22-6.5 31.4-12.1 14.6-8.6 21.5-16.5 61.2-69.3 20-26.7 36.7-49.1 37.1-49.8C576 .3 531.3 0 353.3 0H130.5zM33.7 179.7c-1.2 1.1-.8 460.3.3 460.3.6 0 23.4-16.8 50.8-37.3 39.1-29.4 51.5-39.2 58-46.1 11.7-12.5 18.5-24.6 23.9-43.1 1.6-5.5 1.8-13.7 2.1-101.8l.3-95.7h118.6c88.7 0 119.6.3 122.5 1.2 2.2.6 6 3.1 8.3 5.4 11 10.7 8.8 27.6-4.7 35.3l-5.3 3.1H215v178c0 138.3.3 178 1.2 178 2.1 0 100-74.2 106.8-81 11.7-11.6 20.3-26.9 25.2-44.8 2-7.2 2.2-10.6 2.6-51l.3-43.2h32.8c28.6 0 34.5-.3 45.2-2.1 80.1-13.4 138.6-87.7 131.9-167.5-3-36.1-15.9-66.8-39.3-93.4-27.2-31.2-66.6-50.7-109.1-54-13.7-1.1-377.9-1.4-378.9-.3"/>
</svg>