<svg width="40" height="40" viewBox="0 0 40 40" fill="none" id="frontendSVG">
  <path d="M34.3613 3.76617L36.0254 2.10204C36.4832 1.64428 36.4832 0.902156 36.0254 0.444395C35.5677 -0.013366 34.8255 -0.013366 34.3678 0.444395L32.7036 2.10853C31.9631 2.84908 32.4976 4.10945 33.5324 4.10945C33.8325 4.10945 34.1324 3.99505 34.3613 3.76617V3.76617Z" fill="#FFEE66"></path>
  <path d="M36.4744 11.179H34.1209C33.4735 11.179 32.9487 11.7038 32.9487 12.3511C32.9487 12.9984 33.4735 13.5232 34.1209 13.5232H36.4744C37.1217 13.5232 37.6465 12.9984 37.6465 12.3511C37.6465 11.7038 37.1217 11.179 36.4744 11.179Z" fill="#FFEE66"></path>
  <path d="M5.63219 0.444395C5.17451 -0.013366 4.43231 -0.013366 3.97455 0.444395C3.51679 0.902156 3.51679 1.64428 3.97455 2.10204L5.63868 3.76617C5.86756 3.99505 6.16755 4.10953 6.46746 4.10953C7.50238 4.10953 8.03673 2.84908 7.29624 2.1086L5.63219 0.444395Z" fill="#FFEE66"></path>
  <path d="M5.87909 11.179H3.52566C2.87832 11.179 2.35352 11.7038 2.35352 12.3511C2.35352 12.9984 2.87832 13.5232 3.52566 13.5232H5.87917C6.5265 13.5232 7.05131 12.9984 7.05131 12.3511C7.05131 11.7038 6.5265 11.179 5.87909 11.179V11.179Z" fill="#FFEE66"></path>
  <path d="M30.0022 37.6557H24.6885C22.8855 37.6557 21.1721 36.2678 21.1721 33.9838C23.527 33.4488 25.2907 31.34 25.2907 28.8256C25.2907 28.2322 25.2907 24.3577 25.2907 23.5302C25.2907 21.1884 26.1639 19.0897 27.6857 17.5152C29.556 15.5801 30.586 13.0455 30.586 10.3782C30.586 4.65567 25.8371 0 20 0C14.1628 0 9.41394 4.65567 9.41394 10.3782C9.41394 13.0455 10.4439 15.5801 12.3143 17.5153C13.832 19.0855 14.7093 21.1826 14.7093 23.5302V28.8256C14.7093 31.34 16.473 33.4489 18.8279 33.9838C18.8279 37.5809 21.6114 40 24.6886 40H30.0023C30.6496 40 31.1745 39.4752 31.1745 38.8279C31.1745 38.1805 30.6497 37.6557 30.0022 37.6557V37.6557ZM17.0535 24.7024H22.9464V27.065H17.0535V24.7024ZM20 9.16897L21.9706 12.125L20 13.7672L18.0293 12.125L20 9.16897ZM13.9999 15.886C9.08855 10.8044 12.7651 2.34429 20 2.34429C27.2393 2.34429 30.9092 10.8068 26.0001 15.886C24.2923 17.6529 23.25 19.9183 23.0033 22.3581H21.1721V15.8421L24.2759 13.2556C24.7072 12.9042 24.8594 12.1974 24.5019 11.6957L20.9813 6.41475C20.6171 5.82946 19.5429 5.60472 19.0187 6.41467L15.4981 11.6956C15.1842 12.1545 15.2392 12.8765 15.7241 13.2555L18.8279 15.842V22.358H16.9967C16.75 19.9183 15.7076 17.6529 13.9999 15.886V15.886ZM17.1116 29.4093H22.8884C22.6168 30.7553 21.4249 31.7719 20 31.7719C18.5752 31.7719 17.3833 30.7553 17.1116 29.4093V29.4093Z" fill="#FFEE66"></path>
</svg>